<svg width="264" height="264" viewBox="0 0 264 264" fill="none" xmlns="http://www.w3.org/2000/svg">
<rect width="264" height="264" rx="16" fill="#392A43"/>
<g filter="url(#filter0_d_1_15)">
<path d="M46.0711 96.464C46.0711 77.456 53.6391 61.264 68.7751 47.888C83.9111 34.336 104.767 27.56 131.343 27.56C158.095 27.56 179.215 33.632 194.703 45.776C210.191 57.92 217.935 73.936 217.935 93.824C217.935 99.984 216.615 106.496 213.975 113.36C211.335 120.048 208.959 125.152 206.847 128.672C204.735 132.192 200.335 138.352 193.647 147.152C187.135 155.776 183.175 161.144 181.767 163.256L146.919 209.72C144.455 213.24 141.023 215 136.623 215H83.5591C81.9751 215 80.5671 214.472 79.3351 213.416C78.2791 212.184 77.7511 210.864 77.7511 209.456C77.7511 208.048 78.1031 206.816 78.8071 205.76L113.391 159.56C93.1511 157.624 76.1671 149.88 62.4391 136.328C57.6871 131.752 53.7271 126.032 50.5591 119.168C47.5671 112.128 46.0711 104.56 46.0711 96.464ZM131.607 79.04C126.327 79.04 121.927 80.624 118.407 83.792C115.063 86.784 113.391 91.008 113.391 96.464C113.391 101.744 115.063 105.88 118.407 108.872C121.927 111.864 126.327 113.36 131.607 113.36C136.887 113.36 141.199 111.864 144.543 108.872C148.063 105.88 149.823 101.744 149.823 96.464C149.823 91.008 148.063 86.784 144.543 83.792C141.199 80.624 136.887 79.04 131.607 79.04Z" fill="#99EEBB"/>
</g>
<defs>
<filter id="filter0_d_1_15" x="46.0711" y="27.56" width="181.864" height="195.44" filterUnits="userSpaceOnUse" color-interpolation-filters="sRGB">
<feFlood flood-opacity="0" result="BackgroundImageFix"/>
<feColorMatrix in="SourceAlpha" type="matrix" values="0 0 0 0 0 0 0 0 0 0 0 0 0 0 0 0 0 0 127 0" result="hardAlpha"/>
<feOffset dx="10" dy="8"/>
<feComposite in2="hardAlpha" operator="out"/>
<feColorMatrix type="matrix" values="0 0 0 0 0.533333 0 0 0 0 0.454902 0 0 0 0 0.545098 0 0 0 1 0"/>
<feBlend mode="normal" in2="BackgroundImageFix" result="effect1_dropShadow_1_15"/>
<feBlend mode="normal" in="SourceGraphic" in2="effect1_dropShadow_1_15" result="shape"/>
</filter>
</defs>
</svg>
